<?xml version="1.0" encoding="UTF-8" standalone="no"?>
<!-- Created with Inkscape (http://www.inkscape.org/) -->

<svg
   xmlns:dc="http://purl.org/dc/elements/1.1/"
   xmlns:cc="http://creativecommons.org/ns#"
   xmlns:rdf="http://www.w3.org/1999/02/22-rdf-syntax-ns#"
   xmlns:svg="http://www.w3.org/2000/svg"
   xmlns="http://www.w3.org/2000/svg"
   xmlns:sodipodi="http://sodipodi.sourceforge.net/DTD/sodipodi-0.dtd"
   xmlns:inkscape="http://www.inkscape.org/namespaces/inkscape"
   version="1.1"
   width="40"
   height="40"
   viewBox="0 0 40 40"
   id="Shape_5_2_"
   xml:space="preserve"
   inkscape:version="0.48.4 r9939"
   sodipodi:docname="checked.svg"><sodipodi:namedview
     pagecolor="#ffffff"
     bordercolor="#666666"
     borderopacity="1"
     objecttolerance="10"
     gridtolerance="10"
     guidetolerance="10"
     inkscape:pageopacity="0"
     inkscape:pageshadow="2"
     inkscape:window-width="640"
     inkscape:window-height="480"
     id="namedview8"
     showgrid="false"
     inkscape:zoom="5.9"
     inkscape:cx="20"
     inkscape:cy="20"
     inkscape:window-x="49"
     inkscape:window-y="0"
     inkscape:window-maximized="0"
     inkscape:current-layer="Shape_5_2_" /><metadata
     id="metadata9"><rdf:RDF><cc:Work
         rdf:about=""><dc:format>image/svg+xml</dc:format><dc:type
           rdf:resource="http://purl.org/dc/dcmitype/StillImage" /><dc:title /></cc:Work></rdf:RDF></metadata><defs
     id="defs7" /><path
     style="fill:#848484;fill-opacity:1"
     d="M 5.28125 2 C 3.473375 2 2 3.4745012 2 5.28125 L 2 34.71875 C 2 36.5255 3.473375 38 5.28125 38 L 34.71875 38 C 36.525501 38 38 36.5255 38 34.71875 L 38 5.28125 C 38 3.4745012 36.525501 2 34.71875 2 L 5.28125 2 z M 8 8 L 32 8 L 32 32 L 8 32 L 8 8 z "
     id="path2988" /><path
     d="M 11.428574,36 C 5.714284,23.409631 0,17.901343 0,17.901343 L 9.761426,10.81926 c 0,0 2.857148,3.14759 5.71429,12.590371 C 22.857142,10.81926 35.714284,4 35.714284,4 L 40,6.0978704 C 22.857142,20.262035 17.142858,36 17.142858,36 c 0,0 -2.857142,0 -5.714284,0 z"
     id="path3-4"
     style="fill:#008000"
     inkscape:connector-curvature="0" /></svg>